# xmcd CD database file
#
# Track frame offsets:
#	150
#	12379
#	26238
#	42399
#	58750
#	74217
#	83868
#	100038
#	111521
#	126396
#	139211
#	155023
#
# Disc length: 2290 seconds
#
# Revision: 3
# Processed by: cddbd v1.5.2PL0 Copyright (c) Steve Scherf et al.
# Submitted via: CDex 1.70beta2
#
DISCID=b808f00c
DTITLE=Get Up and Dance - Workshop 100 - Get up and Dance - Workshop 100
DYEAR=2013
DGENRE=Country
TTITLE0=Matt Thomson - Camo Hats and Boots
TTITLE1=John Robinson &Jo Thompson Szrymansk i_ Choo Choo Cha Boogie -
TTITLE2=An and Bruno - C'mon 
TTITLE3=Yvonne Van Halen - I Didn't Pick This Life 
TTITLE4=Gaye Teather - Maverokin
TTITLE5=Alison Johnstone - Reflection
TTITLE6=Honky Tonk Cliff - We're Moving On
TTITLE7=Alisson Biggs and Peter Metelnick - Where The Pavement Ends
TTITLE8=R.. Ghazali-Meaney - Broon Sauce
TTITLE9=Diane Girard and Jacques Godin - Mexican Express (P)
TTITLE10=The Hillbilly - Pat Esper
TTITLE11=Karl-Harry Winson - When I Need You
EXTD=YEAR: 2013
EXTT0=
EXTT1=
EXTT2=
EXTT3=
EXTT4=
EXTT5=
EXTT6=
EXTT7=
EXTT8=
EXTT9=
EXTT10=
EXTT11=
PLAYORDER=
